<svg id="Capa_1" enable-background="new 0 0 512 512" height="512" viewBox="0 0 512 512" width="512" xmlns="http://www.w3.org/2000/svg"><g><g><path d="m152.93 21.6c-31.43 13.84-59.38 33.58-83.05 58.65-2.57 2.71-5.06 5.47-7.49 8.28l9.24 72.97-68.02 51.5c-.62 3.66-1.16 7.33-1.62 11.03-1.32 10.48-1.99 21.24-1.99 31.97 0 68.38 26.63 132.67 74.98 181.02s112.64 74.98 181.02 74.98l46.5-266.29-46.5-245.71c-35.84 0-70.52 7.27-103.07 21.6z" fill="#edf5ff"/></g><g><path d="m437.02 74.98c-48.35-48.35-112.64-74.98-181.02-74.98v512c24.18 0 48.11-3.37 71.13-10.02 2.36-.68 4.71-1.4 7.05-2.15l48.32-70.41 72.77-12.7c1.5-1.86 2.98-3.75 4.43-5.65 34.21-44.88 52.3-98.5 52.3-155.07 0-68.38-26.63-132.67-74.98-181.02z" fill="#d5e8fe"/></g><path d="m139.66 165c0 42.25-34.25 76.5-76.5 76.5-24.07 0-45.53-11.11-59.55-28.5 7.78-46.26 27.92-88.91 58.78-124.47 42.61-.44 77.27 33.97 77.27 76.47z" fill="#d5e8fe"/><circle cx="368.816" cy="237.75" fill="#aac7e0" r="41.75"/><path d="m455.27 416.72c-31.32 38.74-73.87 67.95-121.09 83.11l-11.21-12.26c-12.71-13.65-20.47-31.96-20.47-52.07 0-42.25 34.25-76.5 76.5-76.5 30.22 0 56.35 17.53 68.77 42.97z" fill="#aac7e0"/><path d="m256 88.5 14.667 32.167-14.667 27.833c-16.57 0-30-13.43-30-30s13.43-30 30-30z" fill="#d5e8fe"/><path d="m286 118.5c0 16.57-13.43 30-30 30v-60c16.57 0 30 13.43 30 30z" fill="#aac7e0"/><circle cx="169.25" cy="334.059" fill="#d5e8fe" r="41.75"/><path d="m455.27 416.72c-31.32 38.74-73.87 67.95-121.09 83.11l-11.21-12.26c-12.71-13.65-20.47-31.96-20.47-52.07 0-42.25 34.25-76.5 76.5-76.5 30.22 0 56.35 17.53 68.77 42.97z" fill="#aac7e0"/></g></svg>